<?xml version="1.0"?>
<svg xmlns="http://www.w3.org/2000/svg" id="Layer_1" data-name="Layer 1" viewBox="0 0 512 512" width="512" height="512"><title>value customers users viewer</title><path d="M441.684,308.756l-66.135,35.678-6.26,3.3c.059.957.1,1.919.1,2.89a6,6,0,0,1-6,6c-.09,0-.18,0-.272-.006l-45.656-2.065A219.979,219.979,0,0,0,277.43,356.4a6,6,0,1,1-1.645-11.886A232.294,232.294,0,0,1,318,342.565L356.8,344.32a33.851,33.851,0,0,0-33.2-27.49H270.068a70.039,70.039,0,0,1-30.314-6.946l-5.52-2.67a82.736,82.736,0,0,0-85.918,8.265l-13.138,11.7a58.254,58.254,0,0,1-21.916,12.257l26.3,86.251,36.914-23.337c.091-.058.183-.114.277-.165a35.78,35.78,0,0,1,26.086-3.535l80.26,14.78a92.04,92.04,0,0,0,56.48-7.848l133.653-91.767A26.216,26.216,0,0,0,441.684,308.756Z"/><path d="M369.9,333.846l52.772-28.47c-5.881-5.613-15.09-8.616-22.406-4.953l-40.692,21.925a45.75,45.75,0,0,1,7.227,13.131Z"/><path d="M96.752,457.077a6.89,6.89,0,1,0-6.891-6.889A6.9,6.9,0,0,0,96.752,457.077Z"/><path d="M346.3,298.857c-.047.028-.094.054-.143.081l-12.787,6.953a45.6,45.6,0,0,1,17.139,7.713l26.828-14.455A30.516,30.516,0,0,0,346.3,298.857Z"/><path d="M38.771,310.85l20.02,164.16h83.26L92,310.85Zm76.87,139.338A18.89,18.89,0,1,1,96.752,431.3,18.91,18.91,0,0,1,115.641,450.188Z"/><path d="M256.967,123.848A33.581,33.581,0,0,0,290.51,90.305V70.533a33.544,33.544,0,0,0-67.088,0V90.305A33.582,33.582,0,0,0,256.967,123.848Z"/><path d="M372.629,136.791a28.645,28.645,0,0,0,28.613-28.612V90.872a28.612,28.612,0,1,0-57.224,0v17.307A28.643,28.643,0,0,0,372.629,136.791Z"/><path d="M141.145,136.791a28.645,28.645,0,0,0,28.613-28.612V90.872a28.613,28.613,0,0,0-57.225,0v17.307A28.643,28.643,0,0,0,141.145,136.791Z"/><path d="M430.887,194.709a32.987,32.987,0,0,0-28.069-32.587,39.541,39.541,0,0,1-59.2-.155,32.438,32.438,0,0,0-12.789,4.221,50.183,50.183,0,0,1,5.545,22.974v38.491h94.51Z"/><path d="M189.555,189.162v58.263H324.377V189.162a38.541,38.541,0,0,0-33.26-38.141,44.314,44.314,0,0,1-66.933-.159A38.763,38.763,0,0,0,189.555,189.162Z"/><path d="M82.887,194.709v32.944h94.668V189.162a50.259,50.259,0,0,1,5.488-22.908,32.74,32.74,0,0,0-11.711-4.132,39.538,39.538,0,0,1-59.191-.151A33.179,33.179,0,0,0,82.887,194.709Z"/></svg>
