<svg xmlns="http://www.w3.org/2000/svg" viewBox="0 0 512 512"><path fill="none" d="M154.5 300.8c-5.7 0-11.4 2.1-15.7 6.4-8.8 8.7-8.9 22.9-.2 31.7 4.2 4.3 9.8 6.6 15.8 6.7h.2c5.9 0 11.5-2.3 15.7-6.4 8.8-8.7 8.9-22.9.2-31.7-4.4-4.5-10.2-6.7-16-6.7zm91.1 38.5c-4.1 0-8.2 1.6-11.4 4.7-6.4 6.3-6.4 16.6-.2 23 3 3.1 7.1 4.8 11.4 4.8h.1c4.3 0 8.3-1.7 11.4-4.7 3.1-3 4.8-7.1 4.8-11.4 0-4.3-1.6-8.4-4.7-11.5-3-3.3-7.2-4.9-11.4-4.9z"/><path fill="none" d="M332.2 316.9c-7.8-1-26.5-5.7-31.3-27 0-.1 0-.2-.1-.3-.2-1.2-.3-2.5-.4-3.7-1.5-19.5 7.2-34.9 10.1-40 8.2-14.5 19.7-24.5 29.8-33.4 10-8.8 19.5-17.1 24.4-28.2 13-29.7-9.9-69.3-25.4-88-16.8-20.2-40.2-33.5-69.6-39.5-23.6-4.9-44.2-3.6-53-3-40.2 2.5-78.4 19.3-110.3 48.4-18.2 16.7-60.7 63.1-60.8 133.8-.1 65.5 36 109.8 51.6 125.8l.2.2c.2.2 19.1 22 52.6 37.6 19.6 9.1 40.3 14.4 61.5 15.8 26.3 1.6 53.6-2.9 81-13.5l46.1-83.5c-2-.7-4.1-1.2-6.4-1.5zM80.8 243.3c-6.3-6.4-9.7-14.9-9.7-23.8s3.6-17.4 10-23.7c6.4-6.3 14.9-9.8 23.8-9.7 9 .1 17.4 3.6 23.7 10 6.3 6.4 9.7 14.9 9.7 23.8s-3.6 17.4-10 23.7c-6.5 6.4-15.1 9.7-23.6 9.7-8.6.1-17.3-3.3-23.9-10zm94.5 101c-5.6 5.5-13 8.5-20.8 8.5h-.2c-7.9-.1-15.3-3.2-20.9-8.8-11.5-11.6-11.3-30.5.3-41.9 11.6-11.5 30.5-11.3 41.9.3 11.5 11.6 11.4 30.4-.3 41.9zm24.5-187c-7 6.9-16.1 10.3-25.2 10.3-9.3 0-18.5-3.6-25.5-10.7-6.7-6.8-10.4-15.8-10.3-25.4.1-9.6 3.9-18.5 10.7-25.3 6.8-6.7 15.7-10.3 25.2-10.3h.3c9.6.1 18.5 3.9 25.3 10.7 13.8 14.1 13.6 36.8-.5 50.7zM262 372.2c-4.4 4.4-10.3 6.8-16.5 6.8h-.2c-6.3 0-12.2-2.5-16.6-7-9.1-9.2-9-24.1.2-33.2 9.2-9.1 24.1-9 33.2.2 4.4 4.5 6.8 10.4 6.8 16.7.1 6.2-2.4 12.1-6.9 16.5zm-7.4-191.7c-17.1-17.4-16.9-45.5.5-62.6s45.5-16.9 62.6.5 16.9 45.5-.5 62.6c-8.6 8.5-19.8 12.7-31.1 12.7-11.4-.1-22.8-4.5-31.5-13.2z"/><path fill="none" d="M123.6 201.3c-4.9-5-11.5-7.8-18.6-7.9h-.2c-7 0-13.5 2.7-18.5 7.6-5 4.9-7.8 11.5-7.9 18.6-.1 7 2.6 13.7 7.6 18.7 10.2 10.4 26.9 10.5 37.3.3 5-4.9 7.8-11.5 7.9-18.6 0-7.1-2.7-13.7-7.6-18.7zm282.8 32.2l-26.1 25.7c3.7 5.1 8.4 9.5 13.7 12.9 4.8 3 10 5.2 15.5 6.5l10-35.5c-2-.8-4-1.8-5.8-3-2.8-1.8-5.3-4.1-7.3-6.6zm-16.3 44.7c-5.3-3.4-10.1-7.7-14.1-12.7L272.9 452.2c-1.1 2-.5 4.6 1.5 5.8 1.9 1.2 4.5.8 5.9-1.1l125.6-171.8c-5.6-1.5-10.9-3.8-15.8-6.9zm17-59.6c1.4 6.4 5.1 11.9 10.6 15.5s12 4.8 18.4 3.4c6.2-1.3 11.5-4.9 15.1-10l13.5-65.6-54.5 38.9c-3.4 5.3-4.4 11.6-3.1 17.8z"/><path d="M229.1 338.8c-9.2 9.1-9.3 24-.2 33.2 4.4 4.5 10.3 7 16.6 7h.2c6.2 0 12.1-2.4 16.5-6.8 4.5-4.4 7-10.3 7-16.6 0-6.3-2.4-12.2-6.8-16.7-9.2-9.1-24.1-9.2-33.3-.1zM257 367c-3.1 3-7.1 4.7-11.4 4.7h-.1c-4.3 0-8.4-1.8-11.4-4.8-6.3-6.4-6.2-16.7.2-23 3.2-3.1 7.3-4.7 11.4-4.7 4.2 0 8.4 1.6 11.6 4.8 3 3.1 4.7 7.2 4.7 11.5-.2 4.4-2 8.5-5 11.5zM138.4 220c.1-9-3.4-17.4-9.7-23.8-6.3-6.4-14.7-10-23.7-10-9-.1-17.4 3.4-23.8 9.7-6.4 6.3-10 14.7-10 23.7s3.4 17.4 9.7 23.8c6.6 6.7 15.3 10 23.9 10 8.5 0 17.1-3.2 23.6-9.7 6.4-6.3 9.9-14.7 10-23.7zM86 238.3c-4.9-5-7.6-11.7-7.6-18.7.1-7 2.8-13.6 7.9-18.6 5-4.9 11.5-7.6 18.5-7.6h.2c7 .1 13.6 2.8 18.6 7.9 4.9 5 7.6 11.7 7.6 18.7-.1 7-2.8 13.6-7.9 18.6-10.4 10.1-27.1 10-37.3-.3z"/><path fill="#48D0FF" d="M312.5 123.4c-7.2-7.3-16.8-11-26.4-11-9.4 0-18.8 3.5-26 10.6-14.5 14.3-14.7 37.8-.4 52.4 14.3 14.5 37.8 14.7 52.4.4 14.6-14.4 14.8-37.9.4-52.4z"/><path d="M317.7 118.3c-17.1-17.4-45.2-17.6-62.6-.5s-17.6 45.2-.5 62.6c8.6 8.8 20.1 13.2 31.5 13.2 11.2 0 22.5-4.2 31.1-12.7 17.4-17.1 17.6-45.2.5-62.6zm-57.9 57.1c-14.3-14.5-14.2-38 .4-52.4 7.2-7.1 16.6-10.6 26-10.6 9.6 0 19.1 3.7 26.4 11 14.3 14.5 14.2 38-.4 52.4-14.6 14.3-38.1 14.1-52.4-.4zm-84.1 127c-11.5-11.6-30.3-11.8-41.9-.3-11.6 11.5-11.8 30.3-.3 41.9 5.6 5.6 13 8.8 20.9 8.8h.2c7.8 0 15.2-3 20.8-8.5 11.6-11.5 11.7-30.3.3-41.9zm-5.4 36.8c-4.2 4.2-9.8 6.4-15.7 6.4h-.2c-6 0-11.6-2.4-15.8-6.7-8.7-8.8-8.6-23 .2-31.7 4.4-4.3 10-6.4 15.7-6.4 5.8 0 11.6 2.2 16 6.7 8.7 8.8 8.6 23-.2 31.7z"/><path fill="#FFB600" d="M195 111.7c-5.4-5.4-12.5-8.5-20.2-8.5h-.2c-7.6 0-14.7 2.9-20.1 8.2-5.4 5.4-8.5 12.5-8.5 20.2-.1 7.6 2.9 14.8 8.2 20.3 11.1 11.2 29.2 11.4 40.4.3 11.4-11.2 11.5-29.3.4-40.5z"/><path d="M174.9 95.9h-.3c-9.5 0-18.4 3.7-25.2 10.3-6.8 6.7-10.6 15.7-10.7 25.3-.1 9.6 3.6 18.6 10.3 25.4 7 7.1 16.3 10.7 25.5 10.7 9.1 0 18.2-3.4 25.2-10.3 14.1-13.9 14.2-36.6.4-50.7-6.6-6.8-15.6-10.6-25.2-10.7zm-20.6 55.9c-5.4-5.4-8.3-12.6-8.2-20.3.1-7.6 3.1-14.8 8.5-20.2 5.4-5.3 12.5-8.2 20.1-8.2h.2c7.6.1 14.8 3.1 20.2 8.5 11.1 11.2 10.9 29.4-.3 40.4-11.3 11.2-29.4 11-40.5-.2z"/><path d="M472 150.5c-1.2-.8-2.9-.8-4.1.1l-62.6 44.6c-.4.3-.7.6-.9 1-4.6 7.1-6.2 15.6-4.5 23.9.5 2.5 1.4 4.9 2.4 7.2L373 256.2c-.1.1-.3.3-.4.5 0 .1-.1.1-.1.2s-.1.1-.1.2l-30.3 54.8c-2.7-.9-5.7-1.6-9-2.1-7.8-1-21.4-5.2-25.1-21.3-.1-1-.3-2.1-.3-3.1-1.4-17.3 6.6-31.3 9.2-35.9 7.6-13.4 18.1-22.6 28.2-31.5 10.6-9.3 20.7-18.1 26.2-30.8 14.5-32.9-9.9-75.6-26.5-95.6-17.9-21.5-42.7-35.6-73.7-42-24.6-5.1-45.8-3.7-54.9-3.2-41.9 2.6-81.6 20-114.8 50.3-19 17.3-63.1 65.5-63.2 139 0 68.3 37.5 114.3 53.7 131 1.6 1.8 20.6 23.2 54.7 39.2 18.8 8.8 44.5 16.8 75.6 16.8 19.6 0 41.4-3.2 65-11.3l-20.6 37.3c-3 5.4-1.2 12.1 3.9 15.4 1.9 1.2 4.1 1.8 6.2 1.8 3.6 0 7.2-1.7 9.4-4.8L415 284.9s.1-.1.1-.2c.1-.1.1-.2.2-.3 0-.1.1-.2.1-.3 0-.1.1-.2.1-.3v-.1l10.9-38.8c1.5.2 2.9.3 4.4.3 2.2 0 4.4-.2 6.6-.7 8.3-1.8 15.4-6.6 20-13.7.2-.4.4-.8.5-1.2l15.5-75.3c.5-1.5-.1-3-1.4-3.8zM211.5 415.2c-21.2-1.3-41.9-6.6-61.5-15.8-33.5-15.6-52.5-37.4-52.6-37.6 0-.1-.1-.1-.2-.2-15.5-16-51.7-60.3-51.6-125.8.1-70.6 42.6-117 60.8-133.7 32-29.2 70.1-45.9 110.3-48.4 8.8-.5 29.4-1.8 53 3 29.3 6 52.7 19.3 69.6 39.5 15.6 18.7 38.5 58.3 25.4 88-4.9 11.2-14.4 19.5-24.4 28.2-10.1 8.9-21.5 18.9-29.8 33.4-2.9 5.1-11.7 20.5-10.1 40 .1 1.3.2 2.5.4 3.7 0 .1 0 .2.1.3 4.8 21.3 23.5 26 31.3 27 2.3.3 4.4.8 6.3 1.3l-46.1 83.5c-27.3 10.7-54.6 15.3-80.9 13.6zm68.8 41.8c-1.4 1.9-4 2.4-5.9 1.1-1.9-1.2-2.6-3.8-1.5-5.8L376 265.5c4 5 8.7 9.3 14.1 12.7 4.9 3.1 10.2 5.4 15.8 6.9L280.3 457zm129.2-178.5c-5.5-1.3-10.7-3.4-15.5-6.5-5.3-3.4-10-7.8-13.7-12.9l26.1-25.7c2.1 2.5 4.5 4.8 7.3 6.6 1.9 1.2 3.8 2.2 5.8 3l-10 35.5zm41.7-51.1c-3.6 5.2-8.9 8.7-15.1 10-6.4 1.4-12.9.1-18.4-3.4s-9.2-9.1-10.6-15.5c-1.3-6.2-.2-12.5 3.1-17.9l54.5-38.9-13.5 65.7z"/></svg>