<svg xmlns="http://www.w3.org/2000/svg" viewBox="0 0 512 512"><g stroke="#000" stroke-width="7.25" stroke-miterlimit="10"><path fill="#48D0FF" d="M388.8 90.6l-34.7 21.5c-3.4 2.1-4.4 6.5-2.3 9.9l82.4 132.7c2.1 3.4 6.5 4.4 9.9 2.3l34.7-21.5c3.4-2.1 4.4-6.5 2.3-9.9L398.7 92.9c-2.1-3.4-6.6-4.4-9.9-2.3z"/><path fill="none" d="M220.7 166.2l46.3-26.4c10.1-5.7 21.9-7.7 33.3-5.8l65.8 11.1m25.5 164.3c6.5-5.7 11.6-13 14.7-21.2l18.4-48.7"/><path fill="#FFB600" d="M151 104.8l29.2 28.5c2.8 2.8 2.9 7.3.1 10.2l-109 111.9c-2.8 2.8-7.3 2.9-10.2.1L32 227c-2.8-2.8-2.9-7.3-.1-10.2l109-111.9c2.7-2.9 7.3-2.9 10.1-.1z"/><path fill="none" stroke-linecap="round" stroke-linejoin="round" d="M275.5 194.8l109.9 107.8c10.7 9.5 11.8 25.8 2.4 36.6-9.5 11-26.1 12.1-37 2.6"/><path fill="#FFF" stroke-linecap="round" stroke-linejoin="round" d="M161.4 162.9l59.3 3.3"/><path fill="none" stroke-linecap="round" stroke-linejoin="round" d="M284.5 283.4l72.4 64.6c11.6 10.3 11.8 28.4.3 38.8-9.8 9-24.9 9.1-34.8.3l-70.9-60.4"/><path fill="none" stroke-linecap="round" stroke-linejoin="round" d="M251.4 326.7l45.4 38.3c11.6 10.3 11.8 28.4.3 38.8-9.8 9-24.9 9.1-34.8.3L213.5 361M90.1 284.9l-6.2-42.4"/><path fill="none" stroke-linecap="round" stroke-linejoin="round" d="M213.5 361.1l18.3 15.8c11.6 10.3 11.8 28.4.3 38.8-9.8 9-24.9 9.1-34.8.3L179 397.5"/><g fill="none" stroke-linecap="round" stroke-linejoin="round"><path d="M161.5 364.8L149.7 375c-7.4 6.4-18.7 5.5-25-1.9-6.4-7.4-5.5-18.7 1.9-25l11.8-10.2c7.4-6.4 18.7-5.5 25 1.9 6.4 7.4 5.5 18.6-1.9 25z"/><path d="M143.9 333.7L119.2 355c-7.4 6.4-18.7 5.5-25-1.9-6.4-7.4-5.5-18.7 1.9-25l24.7-21.3c7.4-6.4 18.7-5.5 25 1.9 6.4 7.4 5.5 18.7-1.9 25zm36.6 62.6c7.4-6.4 8.3-17.6 1.9-25-6.4-7.4-17.6-8.3-25-1.9-7.4 6.4-8.3 17.6-1.9 25 6.4 7.4 17.6 8.2 25 1.9zM109.1 316c7.4-6.4 8.3-17.6 1.9-25-6.4-7.4-17.6-8.3-25-1.9-7.4 6.4-8.3 17.6-1.9 25 6.3 7.4 17.6 8.3 25 1.9z"/></g><path fill="none" stroke-linecap="round" stroke-linejoin="round" d="M220.7 166.2l-23.5 92.3c-1.7 5 1.9 10.1 7.2 10.4 13.9.7 38.8-6 50.2-58.2.5-2.5 2-4.7 4-6.2l15.2-11.2"/></g></svg>